<svg xmlns="http://www.w3.org/2000/svg" viewBox="0 0 760 440" role="img" font-family="-apple-system, BlinkMacSystemFont, 'Segoe UI', sans-serif">
  <title>Prim's algorithm — animated step-by-step</title>
  <desc>Animated SVG that loops through the six steps of Prim's algorithm on a six-vertex graph. Each frame shows two panels side by side: the hexagonal graph view on the left (vertices coloured green for S, red for V\S; edges blue for A, orange for crossing, faint grey for internal; the just-added edge wears an orange halo), and the partition re-view on the right (S ellipse and V\S ellipse with vertices distributed accordingly). The animation loops indefinitely.</desc>
  <style>
    .ink-stroke   { stroke: #5F5E5A; }
        .ink-fill     { fill:   #3F3E3A; }
        .muted-fill   { fill:   #5F5E5A; }
        .node-fill    { fill:   #F1EFE8; }
        .cross-stroke { stroke: #C0532E; }
        .a-stroke     { stroke: #1E5AA8; }
        .a-fill       { fill:   #1E5AA8; }
        .s-stroke     { stroke: #0F6E56; }
        .vs-stroke    { stroke: #993C1D; }
        .s-fill       { fill:   #085041; }
        .vs-fill      { fill:   #712B13; }
        .s-region     { fill:   #E1F5EE; }
        .vs-region    { fill:   #FAECE7; }
        .new-stroke   { stroke: #F0865B; }
    
        .bg-fill      { fill:   #FFFFFF; }
    
        @media (prefers-color-scheme: dark) {
          .ink-stroke   { stroke: #C8C5BC; }
          .ink-fill     { fill:   #E8E5DC; }
          .muted-fill   { fill:   #B8B5AC; }
          .node-fill    { fill:   #2A2A28; }
          .cross-stroke { stroke: #F0865B; }
          .a-stroke     { stroke: #7BB3F0; }
          .a-fill       { fill:   #9BC8F5; }
          .s-stroke     { stroke: #6FD4B5; }
          .vs-stroke    { stroke: #F0865B; }
          .s-fill       { fill:   #A8E8D2; }
          .vs-fill      { fill:   #F5B59A; }
          .s-region     { fill:   #1B3A33; }
          .vs-region    { fill:   #3A2620; }
          .new-stroke   { stroke: #F0A065; }
          .bg-fill      { fill:   #1A1A1A; }
        }

    @keyframes show-0 {
      0%, 16.6657% { opacity: 1; }
      16.6667%, 100% { opacity: 0; }
    }
    .frame-0 { animation: show-0 16.80s infinite; opacity: 1; }
    @keyframes show-1 {
      0%, 16.6657% { opacity: 0; }
      16.6667%, 33.3323% { opacity: 1; }
      33.3333%, 100% { opacity: 0; }
    }
    .frame-1 { animation: show-1 16.80s infinite; opacity: 0; }
    @keyframes show-2 {
      0%, 33.3323% { opacity: 0; }
      33.3333%, 49.9990% { opacity: 1; }
      50.0000%, 100% { opacity: 0; }
    }
    .frame-2 { animation: show-2 16.80s infinite; opacity: 0; }
    @keyframes show-3 {
      0%, 49.9990% { opacity: 0; }
      50.0000%, 66.6657% { opacity: 1; }
      66.6667%, 100% { opacity: 0; }
    }
    .frame-3 { animation: show-3 16.80s infinite; opacity: 0; }
    @keyframes show-4 {
      0%, 66.6657% { opacity: 0; }
      66.6667%, 83.3323% { opacity: 1; }
      83.3333%, 100% { opacity: 0; }
    }
    .frame-4 { animation: show-4 16.80s infinite; opacity: 0; }
    @keyframes show-5 {
      0%, 83.3323% { opacity: 0; }
      83.3333%, 100% { opacity: 1; }
    }
    .frame-5 { animation: show-5 16.80s infinite; opacity: 0; }
  </style>
  <rect width="100%" height="100%" class="bg-fill"/>
  <g class="frame-0">
    
      <text x="180" y="34" class="ink-fill" font-size="14" font-weight="500" text-anchor="middle">Graph G   —   S = {1},  A = ∅</text>
      <text x="565" y="34" class="ink-fill" font-size="14" font-weight="500" text-anchor="middle">Cut (S, V \ S) — partition view</text>
    
      <line x1="180" y1="110" x2="258" y2="155" class="new-stroke" stroke-width="6" opacity="0.45" stroke-linecap="round"/>
    
      <g class="ink-stroke" stroke-width="1" fill="none" opacity="0.6">
        <line x1="258" y1="155" x2="258" y2="245"/>
        <line x1="258" y1="245" x2="180" y2="290"/>
        <line x1="180" y1="290" x2="102" y2="245"/>
        <line x1="102" y1="245" x2="102" y2="155"/>
        <line x1="258" y1="155" x2="102" y2="155"/>
        <line x1="258" y1="245" x2="102" y2="245"/>
      </g>
    
      <g class="cross-stroke" stroke-width="1.6" fill="none">
        <line x1="180" y1="110" x2="258" y2="155"/>
        <line x1="180" y1="110" x2="102" y2="155"/>
        <line x1="180" y1="110" x2="180" y2="290"/>
      </g>
    
      <g class="muted-fill" font-size="10" text-anchor="middle" dominant-baseline="central">
        <text x="228" y="120">1</text>
        <text x="132" y="120">6</text>
        <text x="193" y="200">8</text>
        <text x="273" y="200">7</text>
        <text x="180" y="143">2</text>
        <text x="226" y="278">5</text>
        <text x="134" y="278">4</text>
        <text x="87" y="200">3</text>
        <text x="180" y="258">9</text>
      </g>
    
      <g class="node-fill s-stroke" stroke-width="1.4">
        <circle cx="180" cy="110" r="16"/>
      </g>
      <g class="node-fill vs-stroke" stroke-width="1.4">
        <circle cx="258" cy="155" r="16"/>
        <circle cx="258" cy="245" r="16"/>
        <circle cx="180" cy="290" r="16"/>
        <circle cx="102" cy="245" r="16"/>
        <circle cx="102" cy="155" r="16"/>
      </g>
      <g font-size="13" text-anchor="middle" dominant-baseline="central">
        <text x="180" y="110" class="s-fill"  font-weight="600">1</text>
        <text x="258" y="155" class="vs-fill" font-weight="600">2</text>
        <text x="258" y="245" class="vs-fill" font-weight="600">3</text>
        <text x="180" y="290" class="vs-fill" font-weight="600">4</text>
        <text x="102" y="245" class="vs-fill" font-weight="600">5</text>
        <text x="102" y="155" class="vs-fill" font-weight="600">6</text>
      </g>
    
      <g class="ink-stroke" stroke-width="1" opacity="0.7">
        <line x1="330" y1="200" x2="395" y2="200"/>
        <polygon points="395,196 405,200 395,204" class="ink-stroke muted-fill"/>
      </g>
      <text x="367" y="190" class="muted-fill" font-size="11" text-anchor="middle" font-style="italic">partition</text>
    
      <ellipse cx="490" cy="210" rx="56" ry="115" class="s-region s-stroke" stroke-width="1.2" stroke-dasharray="5 4" opacity="0.7"/>
      <text x="490" y="78" class="s-fill" font-size="14" font-weight="600" text-anchor="middle">S</text>
    
      <ellipse cx="640" cy="210" rx="56" ry="115" class="vs-region vs-stroke" stroke-width="1.2" stroke-dasharray="5 4" opacity="0.7"/>
      <text x="640" y="78" class="vs-fill" font-size="14" font-weight="600" text-anchor="middle">V \ S</text>
    
      <line x1="490" y1="210" x2="640" y2="105" class="new-stroke" stroke-width="6" opacity="0.45" stroke-linecap="round"/>
    
      <g class="ink-stroke" stroke-width="1" fill="none" opacity="0.6">
        <line x1="640" y1="105" x2="683" y2="175"/>
        <line x1="683" y1="175" x2="670" y2="280"/>
        <line x1="670" y1="280" x2="610" y2="280"/>
        <line x1="610" y1="280" x2="597" y2="175"/>
        <line x1="640" y1="105" x2="597" y2="175"/>
        <line x1="683" y1="175" x2="610" y2="280"/>
      </g>
    
      <g class="cross-stroke" stroke-width="1.6" fill="none">
        <line x1="490" y1="210" x2="640" y2="105"/>
        <line x1="490" y1="210" x2="597" y2="175"/>
        <line x1="490" y1="210" x2="670" y2="280"/>
      </g>
    
      <g class="node-fill s-stroke" stroke-width="1.4">
        <circle cx="490" cy="210" r="16"/>
      </g>
      <g class="node-fill vs-stroke" stroke-width="1.4">
        <circle cx="640" cy="105" r="16"/>
        <circle cx="683" cy="175" r="16"/>
        <circle cx="670" cy="280" r="16"/>
        <circle cx="610" cy="280" r="16"/>
        <circle cx="597" cy="175" r="16"/>
      </g>
      <g font-size="13" text-anchor="middle" dominant-baseline="central">
        <text x="490" y="210" class="s-fill"  font-weight="600">1</text>
        <text x="640" y="105" class="vs-fill" font-weight="600">2</text>
        <text x="683" y="175" class="vs-fill" font-weight="600">3</text>
        <text x="670" y="280" class="vs-fill" font-weight="600">4</text>
        <text x="610" y="280" class="vs-fill" font-weight="600">5</text>
        <text x="597" y="175" class="vs-fill" font-weight="600">6</text>
      </g>
    
      <g font-size="11" dominant-baseline="central">
        <line x1="60" y1="388" x2="88" y2="388" class="a-stroke" stroke-width="2.6" stroke-linecap="round"/>
        <text x="95" y="388" class="ink-fill">edge in A</text>
    
        <line x1="195" y1="388" x2="223" y2="388" class="cross-stroke" stroke-width="1.6"/>
        <text x="230" y="388" class="ink-fill">crossing edge</text>
    
        <line x1="350" y1="388" x2="378" y2="388" class="new-stroke" stroke-width="6" opacity="0.5" stroke-linecap="round"/>
        <text x="385" y="388" class="ink-fill">next pick (halo)</text>
    
        <line x1="525" y1="388" x2="553" y2="388" class="ink-stroke" stroke-width="1" opacity="0.6"/>
        <text x="560" y="388" class="ink-fill">internal, not in A</text>
      </g>
    
      <text x="380" y="418" class="muted-fill" font-size="11" text-anchor="middle">
        Step 0.  Three edges cross the cut: 1–2 (1), 1–6 (6), 1–4 (8).  Lightest: 1–2 — about to enter A.
      </text>
  </g>
  <g class="frame-1">
    
      <text x="180" y="34" class="ink-fill" font-size="14" font-weight="500" text-anchor="middle">Graph G   —   S = {1, 2},  A = {1–2}</text>
      <text x="565" y="34" class="ink-fill" font-size="14" font-weight="500" text-anchor="middle">Cut (S, V \ S) — partition view</text>
    
      <line x1="180" y1="110" x2="258" y2="155" class="new-stroke" stroke-width="6" opacity="0.45" stroke-linecap="round"/>
    
      <g class="ink-stroke" stroke-width="1" fill="none" opacity="0.6">
        <line x1="258" y1="245" x2="180" y2="290"/>
        <line x1="180" y1="290" x2="102" y2="245"/>
        <line x1="102" y1="245" x2="102" y2="155"/>
        <line x1="258" y1="245" x2="102" y2="245"/>
      </g>
    
      <g class="cross-stroke" stroke-width="1.6" fill="none">
        <line x1="180" y1="110" x2="102" y2="155"/>
        <line x1="180" y1="110" x2="180" y2="290"/>
        <line x1="258" y1="155" x2="258" y2="245"/>
        <line x1="258" y1="155" x2="102" y2="155"/>
      </g>
    
      <g class="a-stroke" stroke-width="2.6" fill="none" stroke-linecap="round">
        <line x1="180" y1="110" x2="258" y2="155"/>
      </g>
    
      <g class="muted-fill" font-size="10" text-anchor="middle" dominant-baseline="central">
        <text x="228" y="120">1</text>
        <text x="132" y="120">6</text>
        <text x="193" y="200">8</text>
        <text x="273" y="200">7</text>
        <text x="180" y="143">2</text>
        <text x="226" y="278">5</text>
        <text x="134" y="278">4</text>
        <text x="87" y="200">3</text>
        <text x="180" y="258">9</text>
      </g>
    
      <g class="node-fill s-stroke" stroke-width="1.4">
        <circle cx="180" cy="110" r="16"/>
        <circle cx="258" cy="155" r="16"/>
      </g>
      <g class="node-fill vs-stroke" stroke-width="1.4">
        <circle cx="258" cy="245" r="16"/>
        <circle cx="180" cy="290" r="16"/>
        <circle cx="102" cy="245" r="16"/>
        <circle cx="102" cy="155" r="16"/>
      </g>
      <g font-size="13" text-anchor="middle" dominant-baseline="central">
        <text x="180" y="110" class="s-fill"  font-weight="600">1</text>
        <text x="258" y="155" class="s-fill"  font-weight="600">2</text>
        <text x="258" y="245" class="vs-fill" font-weight="600">3</text>
        <text x="180" y="290" class="vs-fill" font-weight="600">4</text>
        <text x="102" y="245" class="vs-fill" font-weight="600">5</text>
        <text x="102" y="155" class="vs-fill" font-weight="600">6</text>
      </g>
    
      <g class="ink-stroke" stroke-width="1" opacity="0.7">
        <line x1="330" y1="200" x2="395" y2="200"/>
        <polygon points="395,196 405,200 395,204" class="ink-stroke muted-fill"/>
      </g>
      <text x="367" y="190" class="muted-fill" font-size="11" text-anchor="middle" font-style="italic">partition</text>
    
      <ellipse cx="490" cy="210" rx="56" ry="115" class="s-region s-stroke" stroke-width="1.2" stroke-dasharray="5 4" opacity="0.7"/>
      <text x="490" y="78" class="s-fill" font-size="14" font-weight="600" text-anchor="middle">S</text>
    
      <ellipse cx="640" cy="210" rx="56" ry="115" class="vs-region vs-stroke" stroke-width="1.2" stroke-dasharray="5 4" opacity="0.7"/>
      <text x="640" y="78" class="vs-fill" font-size="14" font-weight="600" text-anchor="middle">V \ S</text>
    
      <line x1="490" y1="150" x2="490" y2="270" class="new-stroke" stroke-width="6" opacity="0.45" stroke-linecap="round"/>
    
      <g class="ink-stroke" stroke-width="1" fill="none" opacity="0.6">
        <line x1="676" y1="150" x2="676" y2="270"/>
        <line x1="676" y1="150" x2="604" y2="270"/>
        <line x1="676" y1="270" x2="604" y2="270"/>
        <line x1="604" y1="270" x2="604" y2="150"/>
      </g>
    
      <g class="cross-stroke" stroke-width="1.6" fill="none">
        <line x1="490" y1="150" x2="604" y2="150"/>
        <line x1="490" y1="150" x2="676" y2="270"/>
        <line x1="490" y1="270" x2="676" y2="150"/>
        <line x1="490" y1="270" x2="604" y2="150"/>
      </g>
    
      <g class="a-stroke" stroke-width="2.6" fill="none" stroke-linecap="round">
        <line x1="490" y1="150" x2="490" y2="270"/>
      </g>
    
      <g class="node-fill s-stroke" stroke-width="1.4">
        <circle cx="490" cy="150" r="16"/>
        <circle cx="490" cy="270" r="16"/>
      </g>
      <g class="node-fill vs-stroke" stroke-width="1.4">
        <circle cx="676" cy="150" r="16"/>
        <circle cx="676" cy="270" r="16"/>
        <circle cx="604" cy="270" r="16"/>
        <circle cx="604" cy="150" r="16"/>
      </g>
      <g font-size="13" text-anchor="middle" dominant-baseline="central">
        <text x="490" y="150" class="s-fill"  font-weight="600">1</text>
        <text x="490" y="270" class="s-fill"  font-weight="600">2</text>
        <text x="676" y="150" class="vs-fill" font-weight="600">3</text>
        <text x="676" y="270" class="vs-fill" font-weight="600">4</text>
        <text x="604" y="270" class="vs-fill" font-weight="600">5</text>
        <text x="604" y="150" class="vs-fill" font-weight="600">6</text>
      </g>
    
      <g font-size="11" dominant-baseline="central">
        <line x1="60" y1="388" x2="88" y2="388" class="a-stroke" stroke-width="2.6" stroke-linecap="round"/>
        <text x="95" y="388" class="ink-fill">edge in A</text>
        <line x1="195" y1="388" x2="223" y2="388" class="cross-stroke" stroke-width="1.6"/>
        <text x="230" y="388" class="ink-fill">crossing edge</text>
        <line x1="350" y1="388" x2="378" y2="388" class="new-stroke" stroke-width="6" opacity="0.5" stroke-linecap="round"/>
        <text x="385" y="388" class="ink-fill">just-added (halo)</text>
        <line x1="525" y1="388" x2="553" y2="388" class="ink-stroke" stroke-width="1" opacity="0.6"/>
        <text x="560" y="388" class="ink-fill">internal, not in A</text>
      </g>
    
      <text x="380" y="418" class="muted-fill" font-size="11" text-anchor="middle">
        Step 1.  Vertex 2 hopped into S.  Crossings: 1–6 (6), 1–4 (8), 2–6 (2), 2–3 (7).  Lightest next: 2–6.
      </text>
  </g>
  <g class="frame-2">
    
      <text x="180" y="34" class="ink-fill" font-size="14" font-weight="500" text-anchor="middle">Graph G   —   S = {1, 2, 6},  A = {1–2, 2–6}</text>
      <text x="565" y="34" class="ink-fill" font-size="14" font-weight="500" text-anchor="middle">Cut (S, V \ S) — partition view</text>
    
      <line x1="258" y1="155" x2="102" y2="155" class="new-stroke" stroke-width="6" opacity="0.45" stroke-linecap="round"/>
    
      <g class="ink-stroke" stroke-width="1" fill="none" opacity="0.6">
        <line x1="180" y1="110" x2="102" y2="155"/>
        <line x1="258" y1="245" x2="180" y2="290"/>
        <line x1="180" y1="290" x2="102" y2="245"/>
        <line x1="258" y1="245" x2="102" y2="245"/>
      </g>
    
      <g class="cross-stroke" stroke-width="1.6" fill="none">
        <line x1="258" y1="155" x2="258" y2="245"/>
        <line x1="102" y1="245" x2="102" y2="155"/>
        <line x1="180" y1="110" x2="180" y2="290"/>
      </g>
    
      <g class="a-stroke" stroke-width="2.6" fill="none" stroke-linecap="round">
        <line x1="180" y1="110" x2="258" y2="155"/>
        <line x1="258" y1="155" x2="102" y2="155"/>
      </g>
    
      <g class="muted-fill" font-size="10" text-anchor="middle" dominant-baseline="central">
        <text x="228" y="120">1</text>
        <text x="132" y="120">6</text>
        <text x="193" y="200">8</text>
        <text x="273" y="200">7</text>
        <text x="180" y="143">2</text>
        <text x="226" y="278">5</text>
        <text x="134" y="278">4</text>
        <text x="87" y="200">3</text>
        <text x="180" y="258">9</text>
      </g>
    
      <g class="node-fill s-stroke" stroke-width="1.4">
        <circle cx="180" cy="110" r="16"/>
        <circle cx="258" cy="155" r="16"/>
        <circle cx="102" cy="155" r="16"/>
      </g>
      <g class="node-fill vs-stroke" stroke-width="1.4">
        <circle cx="258" cy="245" r="16"/>
        <circle cx="180" cy="290" r="16"/>
        <circle cx="102" cy="245" r="16"/>
      </g>
      <g font-size="13" text-anchor="middle" dominant-baseline="central">
        <text x="180" y="110" class="s-fill"  font-weight="600">1</text>
        <text x="258" y="155" class="s-fill"  font-weight="600">2</text>
        <text x="102" y="155" class="s-fill"  font-weight="600">6</text>
        <text x="258" y="245" class="vs-fill" font-weight="600">3</text>
        <text x="180" y="290" class="vs-fill" font-weight="600">4</text>
        <text x="102" y="245" class="vs-fill" font-weight="600">5</text>
      </g>
    
      <g class="ink-stroke" stroke-width="1" opacity="0.7">
        <line x1="330" y1="200" x2="395" y2="200"/>
        <polygon points="395,196 405,200 395,204" class="ink-stroke muted-fill"/>
      </g>
      <text x="367" y="190" class="muted-fill" font-size="11" text-anchor="middle" font-style="italic">partition</text>
    
      <ellipse cx="490" cy="210" rx="56" ry="115" class="s-region s-stroke" stroke-width="1.2" stroke-dasharray="5 4" opacity="0.7"/>
      <text x="490" y="78" class="s-fill" font-size="14" font-weight="600" text-anchor="middle">S</text>
    
      <ellipse cx="640" cy="210" rx="56" ry="115" class="vs-region vs-stroke" stroke-width="1.2" stroke-dasharray="5 4" opacity="0.7"/>
      <text x="640" y="78" class="vs-fill" font-size="14" font-weight="600" text-anchor="middle">V \ S</text>
    
      <line x1="515" y1="210" x2="475" y2="280" class="new-stroke" stroke-width="6" opacity="0.45" stroke-linecap="round"/>
    
      <g class="ink-stroke" stroke-width="1" fill="none" opacity="0.6">
        <line x1="475" y1="140" x2="475" y2="280"/>
        <line x1="660" y1="150" x2="640" y2="290"/>
        <line x1="640" y1="290" x2="608" y2="150"/>
        <line x1="660" y1="150" x2="608" y2="150"/>
      </g>
    
      <g class="cross-stroke" stroke-width="1.6" fill="none">
        <line x1="515" y1="210" x2="660" y2="150"/>
        <line x1="608" y1="150" x2="475" y2="280"/>
        <line x1="475" y1="140" x2="640" y2="290"/>
      </g>
    
      <g class="a-stroke" stroke-width="2.6" fill="none" stroke-linecap="round">
        <line x1="475" y1="140" x2="515" y2="210"/>
        <line x1="515" y1="210" x2="475" y2="280"/>
      </g>
    
      <g class="node-fill s-stroke" stroke-width="1.4">
        <circle cx="475" cy="140" r="16"/>
        <circle cx="515" cy="210" r="16"/>
        <circle cx="475" cy="280" r="16"/>
      </g>
      <g class="node-fill vs-stroke" stroke-width="1.4">
        <circle cx="660" cy="150" r="16"/>
        <circle cx="640" cy="290" r="16"/>
        <circle cx="608" cy="150" r="16"/>
      </g>
      <g font-size="13" text-anchor="middle" dominant-baseline="central">
        <text x="475" y="140" class="s-fill"  font-weight="600">1</text>
        <text x="515" y="210" class="s-fill"  font-weight="600">2</text>
        <text x="475" y="280" class="s-fill"  font-weight="600">6</text>
        <text x="660" y="150" class="vs-fill" font-weight="600">3</text>
        <text x="640" y="290" class="vs-fill" font-weight="600">4</text>
        <text x="608" y="150" class="vs-fill" font-weight="600">5</text>
      </g>
    
      <g font-size="11" dominant-baseline="central">
        <line x1="60" y1="388" x2="88" y2="388" class="a-stroke" stroke-width="2.6" stroke-linecap="round"/>
        <text x="95" y="388" class="ink-fill">edge in A</text>
        <line x1="195" y1="388" x2="223" y2="388" class="cross-stroke" stroke-width="1.6"/>
        <text x="230" y="388" class="ink-fill">crossing edge</text>
        <line x1="350" y1="388" x2="378" y2="388" class="new-stroke" stroke-width="6" opacity="0.5" stroke-linecap="round"/>
        <text x="385" y="388" class="ink-fill">just-added (halo)</text>
        <line x1="525" y1="388" x2="553" y2="388" class="ink-stroke" stroke-width="1" opacity="0.6"/>
        <text x="560" y="388" class="ink-fill">internal, not in A</text>
      </g>
    
      <text x="380" y="418" class="muted-fill" font-size="11" text-anchor="middle">
        Step 2.  Vertex 6 hopped into S.  Crossings: 1–4 (8), 2–3 (7), 5–6 (3).  Lightest next: 5–6.
      </text>
  </g>
  <g class="frame-3">
    
      <text x="180" y="34" class="ink-fill" font-size="14" font-weight="500" text-anchor="middle">Graph G   —   S = {1, 2, 5, 6},  A = {1–2, 2–6, 5–6}</text>
      <text x="565" y="34" class="ink-fill" font-size="14" font-weight="500" text-anchor="middle">Cut (S, V \ S) — partition view</text>
    
      <line x1="102" y1="245" x2="102" y2="155" class="new-stroke" stroke-width="6" opacity="0.45" stroke-linecap="round"/>
    
      <g class="ink-stroke" stroke-width="1" fill="none" opacity="0.6">
        <line x1="180" y1="110" x2="102" y2="155"/>
        <line x1="258" y1="245" x2="180" y2="290"/>
      </g>
    
      <g class="cross-stroke" stroke-width="1.6" fill="none">
        <line x1="258" y1="155" x2="258" y2="245"/>
        <line x1="180" y1="110" x2="180" y2="290"/>
        <line x1="258" y1="245" x2="102" y2="245"/>
        <line x1="180" y1="290" x2="102" y2="245"/>
      </g>
    
      <g class="a-stroke" stroke-width="2.6" fill="none" stroke-linecap="round">
        <line x1="180" y1="110" x2="258" y2="155"/>
        <line x1="258" y1="155" x2="102" y2="155"/>
        <line x1="102" y1="245" x2="102" y2="155"/>
      </g>
    
      <g class="muted-fill" font-size="10" text-anchor="middle" dominant-baseline="central">
        <text x="228" y="120">1</text>
        <text x="132" y="120">6</text>
        <text x="193" y="200">8</text>
        <text x="273" y="200">7</text>
        <text x="180" y="143">2</text>
        <text x="226" y="278">5</text>
        <text x="134" y="278">4</text>
        <text x="87" y="200">3</text>
        <text x="180" y="258">9</text>
      </g>
    
      <g class="node-fill s-stroke" stroke-width="1.4">
        <circle cx="180" cy="110" r="16"/>
        <circle cx="258" cy="155" r="16"/>
        <circle cx="102" cy="155" r="16"/>
        <circle cx="102" cy="245" r="16"/>
      </g>
      <g class="node-fill vs-stroke" stroke-width="1.4">
        <circle cx="258" cy="245" r="16"/>
        <circle cx="180" cy="290" r="16"/>
      </g>
      <g font-size="13" text-anchor="middle" dominant-baseline="central">
        <text x="180" y="110" class="s-fill"  font-weight="600">1</text>
        <text x="258" y="155" class="s-fill"  font-weight="600">2</text>
        <text x="102" y="155" class="s-fill"  font-weight="600">6</text>
        <text x="102" y="245" class="s-fill"  font-weight="600">5</text>
        <text x="258" y="245" class="vs-fill" font-weight="600">3</text>
        <text x="180" y="290" class="vs-fill" font-weight="600">4</text>
      </g>
    
      <g class="ink-stroke" stroke-width="1" opacity="0.7">
        <line x1="330" y1="200" x2="395" y2="200"/>
        <polygon points="395,196 405,200 395,204" class="ink-stroke muted-fill"/>
      </g>
      <text x="367" y="190" class="muted-fill" font-size="11" text-anchor="middle" font-style="italic">partition</text>
    
      <ellipse cx="490" cy="210" rx="56" ry="115" class="s-region s-stroke" stroke-width="1.2" stroke-dasharray="5 4" opacity="0.7"/>
      <text x="490" y="78" class="s-fill" font-size="14" font-weight="600" text-anchor="middle">S</text>
    
      <ellipse cx="640" cy="210" rx="56" ry="115" class="vs-region vs-stroke" stroke-width="1.2" stroke-dasharray="5 4" opacity="0.7"/>
      <text x="640" y="78" class="vs-fill" font-size="14" font-weight="600" text-anchor="middle">V \ S</text>
    
      <line x1="515" y1="270" x2="465" y2="270" class="new-stroke" stroke-width="6" opacity="0.45" stroke-linecap="round"/>
    
      <g class="ink-stroke" stroke-width="1" fill="none" opacity="0.6">
        <line x1="465" y1="150" x2="465" y2="270"/>
        <line x1="640" y1="150" x2="640" y2="270"/>
      </g>
    
      <g class="cross-stroke" stroke-width="1.6" fill="none">
        <line x1="465" y1="150" x2="640" y2="270"/>
        <line x1="515" y1="150" x2="640" y2="150"/>
        <line x1="640" y1="150" x2="515" y2="270"/>
        <line x1="640" y1="270" x2="515" y2="270"/>
      </g>
    
      <g class="a-stroke" stroke-width="2.6" fill="none" stroke-linecap="round">
        <line x1="465" y1="150" x2="515" y2="150"/>
        <line x1="515" y1="150" x2="465" y2="270"/>
        <line x1="515" y1="270" x2="465" y2="270"/>
      </g>
    
      <g class="node-fill s-stroke" stroke-width="1.4">
        <circle cx="465" cy="150" r="16"/>
        <circle cx="515" cy="150" r="16"/>
        <circle cx="465" cy="270" r="16"/>
        <circle cx="515" cy="270" r="16"/>
      </g>
      <g class="node-fill vs-stroke" stroke-width="1.4">
        <circle cx="640" cy="150" r="16"/>
        <circle cx="640" cy="270" r="16"/>
      </g>
      <g font-size="13" text-anchor="middle" dominant-baseline="central">
        <text x="465" y="150" class="s-fill"  font-weight="600">1</text>
        <text x="515" y="150" class="s-fill"  font-weight="600">2</text>
        <text x="465" y="270" class="s-fill"  font-weight="600">6</text>
        <text x="515" y="270" class="s-fill"  font-weight="600">5</text>
        <text x="640" y="150" class="vs-fill" font-weight="600">3</text>
        <text x="640" y="270" class="vs-fill" font-weight="600">4</text>
      </g>
    
      <g font-size="11" dominant-baseline="central">
        <line x1="60" y1="388" x2="88" y2="388" class="a-stroke" stroke-width="2.6" stroke-linecap="round"/>
        <text x="95" y="388" class="ink-fill">edge in A</text>
        <line x1="195" y1="388" x2="223" y2="388" class="cross-stroke" stroke-width="1.6"/>
        <text x="230" y="388" class="ink-fill">crossing edge</text>
        <line x1="350" y1="388" x2="378" y2="388" class="new-stroke" stroke-width="6" opacity="0.5" stroke-linecap="round"/>
        <text x="385" y="388" class="ink-fill">just-added (halo)</text>
        <line x1="525" y1="388" x2="553" y2="388" class="ink-stroke" stroke-width="1" opacity="0.6"/>
        <text x="560" y="388" class="ink-fill">internal, not in A</text>
      </g>
    
      <text x="380" y="418" class="muted-fill" font-size="11" text-anchor="middle">
        Step 3.  Vertex 5 hopped into S.  Crossings: 1–4 (8), 2–3 (7), 3–5 (9), 4–5 (4).  Lightest next: 4–5.
      </text>
  </g>
  <g class="frame-4">
    
      <text x="180" y="34" class="ink-fill" font-size="14" font-weight="500" text-anchor="middle">Graph G   —   S = {1, 2, 4, 5, 6},  A = 4 edges</text>
      <text x="565" y="34" class="ink-fill" font-size="14" font-weight="500" text-anchor="middle">Cut (S, V \ S) — partition view</text>
    
      <line x1="180" y1="290" x2="102" y2="245" class="new-stroke" stroke-width="6" opacity="0.45" stroke-linecap="round"/>
    
      <g class="ink-stroke" stroke-width="1" fill="none" opacity="0.6">
        <line x1="180" y1="110" x2="102" y2="155"/>
        <line x1="180" y1="110" x2="180" y2="290"/>
      </g>
    
      <g class="cross-stroke" stroke-width="1.6" fill="none">
        <line x1="258" y1="155" x2="258" y2="245"/>
        <line x1="258" y1="245" x2="180" y2="290"/>
        <line x1="258" y1="245" x2="102" y2="245"/>
      </g>
    
      <g class="a-stroke" stroke-width="2.6" fill="none" stroke-linecap="round">
        <line x1="180" y1="110" x2="258" y2="155"/>
        <line x1="258" y1="155" x2="102" y2="155"/>
        <line x1="102" y1="155" x2="102" y2="245"/>
        <line x1="180" y1="290" x2="102" y2="245"/>
      </g>
    
      <g class="muted-fill" font-size="10" text-anchor="middle" dominant-baseline="central">
        <text x="228" y="120">1</text>
        <text x="132" y="120">6</text>
        <text x="193" y="200">8</text>
        <text x="273" y="200">7</text>
        <text x="180" y="143">2</text>
        <text x="226" y="278">5</text>
        <text x="134" y="278">4</text>
        <text x="87" y="200">3</text>
        <text x="180" y="258">9</text>
      </g>
    
      <g class="node-fill s-stroke" stroke-width="1.4">
        <circle cx="180" cy="110" r="16"/>
        <circle cx="258" cy="155" r="16"/>
        <circle cx="102" cy="155" r="16"/>
        <circle cx="102" cy="245" r="16"/>
        <circle cx="180" cy="290" r="16"/>
      </g>
      <g class="node-fill vs-stroke" stroke-width="1.4">
        <circle cx="258" cy="245" r="16"/>
      </g>
      <g font-size="13" text-anchor="middle" dominant-baseline="central">
        <text x="180" y="110" class="s-fill"  font-weight="600">1</text>
        <text x="258" y="155" class="s-fill"  font-weight="600">2</text>
        <text x="102" y="155" class="s-fill"  font-weight="600">6</text>
        <text x="102" y="245" class="s-fill"  font-weight="600">5</text>
        <text x="180" y="290" class="s-fill"  font-weight="600">4</text>
        <text x="258" y="245" class="vs-fill" font-weight="600">3</text>
      </g>
    
      <g class="ink-stroke" stroke-width="1" opacity="0.7">
        <line x1="330" y1="200" x2="395" y2="200"/>
        <polygon points="395,196 405,200 395,204" class="ink-stroke muted-fill"/>
      </g>
      <text x="367" y="190" class="muted-fill" font-size="11" text-anchor="middle" font-style="italic">partition</text>
    
      <ellipse cx="490" cy="210" rx="56" ry="115" class="s-region s-stroke" stroke-width="1.2" stroke-dasharray="5 4" opacity="0.7"/>
      <text x="490" y="78" class="s-fill" font-size="14" font-weight="600" text-anchor="middle">S</text>
    
      <ellipse cx="640" cy="210" rx="56" ry="115" class="vs-region vs-stroke" stroke-width="1.2" stroke-dasharray="5 4" opacity="0.7"/>
      <text x="640" y="78" class="vs-fill" font-size="14" font-weight="600" text-anchor="middle">V \ S</text>
    
      <line x1="513" y1="285" x2="467" y2="285" class="new-stroke" stroke-width="6" opacity="0.45" stroke-linecap="round"/>
    
      <g class="ink-stroke" stroke-width="1" fill="none" opacity="0.6">
        <line x1="490" y1="110" x2="447" y2="175"/>
        <line x1="490" y1="110" x2="513" y2="285"/>
      </g>
    
      <g class="cross-stroke" stroke-width="1.6" fill="none">
        <line x1="533" y1="175" x2="640" y2="210"/>
        <line x1="640" y1="210" x2="513" y2="285"/>
        <line x1="640" y1="210" x2="467" y2="285"/>
      </g>
    
      <g class="a-stroke" stroke-width="2.6" fill="none" stroke-linecap="round">
        <line x1="490" y1="110" x2="533" y2="175"/>
        <line x1="533" y1="175" x2="447" y2="175"/>
        <line x1="467" y1="285" x2="447" y2="175"/>
        <line x1="513" y1="285" x2="467" y2="285"/>
      </g>
    
      <g class="node-fill s-stroke" stroke-width="1.4">
        <circle cx="490" cy="110" r="16"/>
        <circle cx="533" cy="175" r="16"/>
        <circle cx="513" cy="285" r="16"/>
        <circle cx="467" cy="285" r="16"/>
        <circle cx="447" cy="175" r="16"/>
      </g>
      <g class="node-fill vs-stroke" stroke-width="1.4">
        <circle cx="640" cy="210" r="16"/>
      </g>
      <g font-size="13" text-anchor="middle" dominant-baseline="central">
        <text x="490" y="110" class="s-fill"  font-weight="600">1</text>
        <text x="533" y="175" class="s-fill"  font-weight="600">2</text>
        <text x="513" y="285" class="s-fill"  font-weight="600">4</text>
        <text x="467" y="285" class="s-fill"  font-weight="600">5</text>
        <text x="447" y="175" class="s-fill"  font-weight="600">6</text>
        <text x="640" y="210" class="vs-fill" font-weight="600">3</text>
      </g>
    
      <g font-size="11" dominant-baseline="central">
        <line x1="60" y1="388" x2="88" y2="388" class="a-stroke" stroke-width="2.6" stroke-linecap="round"/>
        <text x="95" y="388" class="ink-fill">edge in A</text>
        <line x1="195" y1="388" x2="223" y2="388" class="cross-stroke" stroke-width="1.6"/>
        <text x="230" y="388" class="ink-fill">crossing edge</text>
        <line x1="350" y1="388" x2="378" y2="388" class="new-stroke" stroke-width="6" opacity="0.5" stroke-linecap="round"/>
        <text x="385" y="388" class="ink-fill">just-added (halo)</text>
        <line x1="525" y1="388" x2="553" y2="388" class="ink-stroke" stroke-width="1" opacity="0.6"/>
        <text x="560" y="388" class="ink-fill">internal, not in A</text>
      </g>
    
      <text x="380" y="418" class="muted-fill" font-size="11" text-anchor="middle">
        Step 4.  Vertex 4 hopped into S.  Crossings: 2–3 (7), 3–4 (5), 3–5 (9).  Lightest next: 3–4.
      </text>
  </g>
  <g class="frame-5">
    
      <text x="180" y="34" class="ink-fill" font-size="14" font-weight="500" text-anchor="middle">Graph G   —   S = V,  A is the MST</text>
      <text x="565" y="34" class="ink-fill" font-size="14" font-weight="500" text-anchor="middle">Cut (S, V \ S) — partition view</text>
    
      <line x1="258" y1="245" x2="180" y2="290" class="new-stroke" stroke-width="6" opacity="0.45" stroke-linecap="round"/>
    
      <g class="ink-stroke" stroke-width="1" fill="none" opacity="0.6">
        <line x1="180" y1="110" x2="102" y2="155"/>
        <line x1="180" y1="110" x2="180" y2="290"/>
        <line x1="258" y1="155" x2="258" y2="245"/>
        <line x1="258" y1="245" x2="102" y2="245"/>
      </g>
    
      <g class="a-stroke" stroke-width="2.6" fill="none" stroke-linecap="round">
        <line x1="180" y1="110" x2="258" y2="155"/>
        <line x1="258" y1="155" x2="102" y2="155"/>
        <line x1="102" y1="155" x2="102" y2="245"/>
        <line x1="102" y1="245" x2="180" y2="290"/>
        <line x1="180" y1="290" x2="258" y2="245"/>
      </g>
    
      <g class="muted-fill" font-size="10" text-anchor="middle" dominant-baseline="central">
        <text x="228" y="120">1</text>
        <text x="132" y="120">6</text>
        <text x="193" y="200">8</text>
        <text x="273" y="200">7</text>
        <text x="180" y="143">2</text>
        <text x="226" y="278">5</text>
        <text x="134" y="278">4</text>
        <text x="87" y="200">3</text>
        <text x="180" y="258">9</text>
      </g>
    
      <g class="node-fill s-stroke" stroke-width="1.4">
        <circle cx="180" cy="110" r="16"/>
        <circle cx="258" cy="155" r="16"/>
        <circle cx="258" cy="245" r="16"/>
        <circle cx="180" cy="290" r="16"/>
        <circle cx="102" cy="245" r="16"/>
        <circle cx="102" cy="155" r="16"/>
      </g>
      <g font-size="13" text-anchor="middle" dominant-baseline="central">
        <text x="180" y="110" class="s-fill" font-weight="600">1</text>
        <text x="258" y="155" class="s-fill" font-weight="600">2</text>
        <text x="258" y="245" class="s-fill" font-weight="600">3</text>
        <text x="180" y="290" class="s-fill" font-weight="600">4</text>
        <text x="102" y="245" class="s-fill" font-weight="600">5</text>
        <text x="102" y="155" class="s-fill" font-weight="600">6</text>
      </g>
    
      <g class="ink-stroke" stroke-width="1" opacity="0.7">
        <line x1="330" y1="200" x2="395" y2="200"/>
        <polygon points="395,196 405,200 395,204" class="ink-stroke muted-fill"/>
      </g>
      <text x="367" y="190" class="muted-fill" font-size="11" text-anchor="middle" font-style="italic">partition</text>
    
      <ellipse cx="490" cy="210" rx="56" ry="115" class="s-region s-stroke" stroke-width="1.2" stroke-dasharray="5 4" opacity="0.7"/>
      <text x="490" y="78" class="s-fill" font-size="14" font-weight="600" text-anchor="middle">S = V</text>
    
      <ellipse cx="640" cy="210" rx="56" ry="115" class="vs-region vs-stroke" stroke-width="1.2" stroke-dasharray="5 4" opacity="0.35"/>
      <text x="640" y="78" class="vs-fill" font-size="14" font-weight="600" text-anchor="middle">V \ S</text>
      <text x="640" y="210" class="vs-fill" font-size="22" font-style="italic" text-anchor="middle" dominant-baseline="central">= ∅</text>
    
      <line x1="533" y1="255" x2="490" y2="320" class="new-stroke" stroke-width="6" opacity="0.45" stroke-linecap="round"/>
    
      <g class="ink-stroke" stroke-width="1" fill="none" opacity="0.6">
        <line x1="490" y1="105" x2="447" y2="165"/>
        <line x1="490" y1="105" x2="490" y2="320"/>
        <line x1="533" y1="165" x2="533" y2="255"/>
        <line x1="533" y1="255" x2="447" y2="255"/>
      </g>
    
      <g class="a-stroke" stroke-width="2.6" fill="none" stroke-linecap="round">
        <line x1="490" y1="105" x2="533" y2="165"/>
        <line x1="533" y1="165" x2="447" y2="165"/>
        <line x1="447" y1="165" x2="447" y2="255"/>
        <line x1="447" y1="255" x2="490" y2="320"/>
        <line x1="490" y1="320" x2="533" y2="255"/>
      </g>
    
      <g class="node-fill s-stroke" stroke-width="1.4">
        <circle cx="490" cy="105" r="16"/>
        <circle cx="533" cy="165" r="16"/>
        <circle cx="533" cy="255" r="16"/>
        <circle cx="490" cy="320" r="16"/>
        <circle cx="447" cy="255" r="16"/>
        <circle cx="447" cy="165" r="16"/>
      </g>
      <g font-size="13" text-anchor="middle" dominant-baseline="central">
        <text x="490" y="105" class="s-fill" font-weight="600">1</text>
        <text x="533" y="165" class="s-fill" font-weight="600">2</text>
        <text x="533" y="255" class="s-fill" font-weight="600">3</text>
        <text x="490" y="320" class="s-fill" font-weight="600">4</text>
        <text x="447" y="255" class="s-fill" font-weight="600">5</text>
        <text x="447" y="165" class="s-fill" font-weight="600">6</text>
      </g>
    
      <g font-size="11" dominant-baseline="central">
        <line x1="60" y1="388" x2="88" y2="388" class="a-stroke" stroke-width="2.6" stroke-linecap="round"/>
        <text x="95" y="388" class="ink-fill">edge in A</text>
        <line x1="195" y1="388" x2="223" y2="388" class="cross-stroke" stroke-width="1.6"/>
        <text x="230" y="388" class="ink-fill">crossing edge</text>
        <line x1="350" y1="388" x2="378" y2="388" class="new-stroke" stroke-width="6" opacity="0.5" stroke-linecap="round"/>
        <text x="385" y="388" class="ink-fill">just-added (halo)</text>
        <line x1="525" y1="388" x2="553" y2="388" class="ink-stroke" stroke-width="1" opacity="0.6"/>
        <text x="560" y="388" class="ink-fill">internal, not in A</text>
      </g>
    
      <text x="380" y="418" class="muted-fill" font-size="11" text-anchor="middle">
        Step 5.  |A| = n − 1 = 5,  w(A) = 1 + 2 + 3 + 4 + 5 = 15.  V \ S is empty; A spans V.  A is the MST.
      </text>
  </g>
</svg>
